<?xml version="1.0"?><svg width="256.463" height="269.104" xmlns="http://www.w3.org/2000/svg">
 <title>Bubbles</title>

 <g>
  <title>Layer 1</title>
  <g id="svg_50">
   <circle id="svg_51" opacity="0.5" r="30.667969" cy="127.897354" cx="106.035819" fill="#007fff"/>
   <circle id="svg_52" opacity="0.5" r="23.1875" cy="121.726507" cx="106.03517" fill="#aaffff"/>
   <g id="svg_53" opacity="0.5">
    <path id="svg_54" d="m125.420776,111.010551c-0.954681,0.838669 -1.908707,1.676781 -2.863388,2.514336c-4.044571,-3.442764 -9.551315,-5.621078 -15.674622,-5.764687c0.037003,-1.175827 0.073318,-2.352219 0.110321,-3.528038c7.199356,0.169403 13.671814,2.729752 18.427689,6.778389z" fill="#FFFFFF"/>
    <path id="svg_55" d="m133.571564,128.488632c-1.361603,-0.031982 -2.721252,-0.0634 -4.082886,-0.095932c0.167465,-5.293457 -2.0495,-10.163391 -5.807861,-13.84288c1.020233,-0.778091 2.041107,-1.556198 3.06131,-2.334824c4.418396,4.325195 7.024124,10.050613 6.829437,16.273636z" fill="#FFFFFF"/>
    <path id="svg_56" d="m128.511322,108.295937c-0.727539,0.640648 -1.45639,1.279602 -2.185211,1.919693c-4.981689,-4.239372 -11.759186,-6.920319 -19.297333,-7.097046c0.027924,-0.897568 0.055817,-1.794586 0.085037,-2.692726c8.357803,0.195786 15.874512,3.170143 21.397507,7.870079z" fill="#FFFFFF"/>
    <path id="svg_57" d="m137.973724,128.591843c-1.038422,-0.023544 -2.076172,-0.048798 -3.114532,-0.072922c0.205048,-6.516418 -2.525269,-12.512787 -7.152008,-17.041634c0.779465,-0.594086 1.557617,-1.187599 2.337708,-1.781693c5.1297,5.021965 8.155334,11.670189 7.928833,18.896248z" fill="#FFFFFF"/>
   </g>
  </g>
  <g id="svg_33">
   <circle opacity="0.5" id="svg_26" r="37.167969" cy="63.437878" cx="77.00726" fill="#007fff"/>
   <circle opacity="0.5" id="svg_27" r="28.101563" cy="55.094932" cx="77.006581" fill="#aaffff"/>
   <g id="svg_28" opacity="0.5">
    <path id="svg_29" d="m97.314774,40.607025c-1.000122,1.133881 -1.999557,2.267006 -2.999672,3.399368c-4.237045,-4.654598 -10.005867,-7.599655 -16.420593,-7.793816c0.038757,-1.589718 0.076836,-3.180187 0.115585,-4.76989c7.541969,0.22904 14.322472,3.690613 19.30468,9.164337z" fill="#FFFFFF"/>
    <path id="svg_30" d="m105.853447,64.237289c-1.426392,-0.043236 -2.850754,-0.085709 -4.277161,-0.1297c0.175423,-7.156734 -2.147079,-13.740837 -6.08429,-18.7155c1.068771,-1.051979 2.138229,-2.103943 3.207024,-3.15667c4.628654,5.847641 7.358398,13.588387 7.154427,22.001869z" fill="#FFFFFF"/>
    <path id="svg_31" d="m100.552376,36.936886c-0.762146,0.86615 -1.525658,1.730019 -2.289177,2.595413c-5.218796,-5.731609 -12.31884,-9.356236 -20.215714,-9.595146c0.029236,-1.213526 0.058472,-2.426285 0.089066,-3.640562c8.755562,0.264709 16.629997,4.286013 22.415825,10.640295z" fill="#FFFFFF"/>
    <path id="svg_32" d="m110.465111,64.376831c-1.087807,-0.03186 -2.174957,-0.065987 -3.262764,-0.098602c0.214836,-8.81015 -2.645439,-16.91721 -7.49234,-23.040184c0.816536,-0.803192 1.631729,-1.605629 2.448952,-2.408829c5.373802,6.789646 8.543442,15.778038 8.306152,25.547615z" fill="#FFFFFF"/>
   </g>
  </g>
  <g id="svg_34">
   <circle id="svg_35" opacity="0.5" r="22.167969" cy="204.397632" cx="76.754787" fill="#007fff"/>
   <circle id="svg_36" opacity="0.5" r="16.757813" cy="199.820244" cx="76.754269" fill="#aaffff"/>
   <g id="svg_37" opacity="0.5">
    <path id="svg_38" d="m92.228157,191.871414c-0.762039,0.622101 -1.523567,1.24379 -2.285606,1.865082c-3.228432,-2.553772 -7.624001,-4.169601 -12.511703,-4.276123c0.029526,-0.872208 0.058517,-1.744812 0.088051,-2.617004c5.746643,0.125641 10.913055,2.024857 14.709259,5.028046z" fill="#FFFFFF"/>
    <path id="svg_39" d="m98.734222,204.836227c-1.086845,-0.023727 -2.17215,-0.047012 -3.259003,-0.071167c0.133667,-3.926559 -1.635963,-7.53894 -4.635941,-10.268311c0.814362,-0.577164 1.62925,-1.154327 2.443596,-1.731934c3.52684,3.208344 5.60675,7.455322 5.451347,12.071411z" fill="#FFFFFF"/>
    <path id="svg_40" d="m94.695053,189.857773c-0.580711,0.475204 -1.162483,0.949173 -1.744232,1.423981c-3.976494,-3.144684 -9.386391,-5.133331 -15.403442,-5.264404c0.022293,-0.665817 0.044548,-1.331192 0.067879,-1.997421c6.671333,0.145248 12.671265,2.351547 17.079796,5.837845z" fill="#FFFFFF"/>
    <path id="svg_41" d="m102.248116,204.912796c-0.828888,-0.017471 -1.657242,-0.036209 -2.486084,-0.054092c0.163673,-4.833725 -2.015701,-9.281693 -5.708847,-12.641083c0.622185,-0.440674 1.243317,-0.880936 1.866013,-1.321625c4.094589,3.725174 6.509705,8.656677 6.328918,14.0168z" fill="#FFFFFF"/>
   </g>
  </g>
  <g id="svg_42">
   <circle id="svg_43" opacity="0.5" r="27.167969" cy="146.897401" cx="50.03571" fill="#007fff"/>
   <circle id="svg_44" opacity="0.5" r="20.539063" cy="141.011986" cx="50.035168" fill="#aaffff"/>
   <g id="svg_45" opacity="0.5">
    <path id="svg_46" d="m66.230255,130.791687c-0.797562,0.799896 -1.594574,1.599243 -2.392136,2.398041c-3.378891,-3.283508 -7.979332,-5.361076 -13.094849,-5.498032c0.030907,-1.121452 0.061249,-2.243423 0.092148,-3.364868c6.014481,0.161583 11.421692,2.603508 15.394836,6.464859z" fill="#FFFFFF"/>
    <path id="svg_47" d="m73.039551,147.461334c-1.137497,-0.030502 -2.273392,-0.060471 -3.410904,-0.091492c0.139923,-5.048615 -1.712204,-9.693298 -4.851974,-13.202606c0.852295,-0.742096 1.705154,-1.484192 2.557449,-2.226807c3.691208,4.125122 5.868088,9.585739 5.705429,15.520905z" fill="#FFFFFF"/>
    <path id="svg_48" d="m68.812134,128.202652c-0.607803,0.611008 -1.21666,1.220398 -1.825531,1.830887c-4.161835,-4.043274 -9.823868,-6.60022 -16.121361,-6.768768c0.023346,-0.856056 0.046631,-1.711578 0.071037,-2.568169c6.982254,0.186737 13.261856,3.023499 17.875854,7.50605z" fill="#FFFFFF"/>
    <path id="svg_49" d="m76.717209,147.559769c-0.867523,-0.022476 -1.734467,-0.046555 -2.601944,-0.069565c0.17131,-6.214996 -2.109634,-11.934006 -5.974915,-16.253372c0.651184,-0.566605 1.301285,-1.132675 1.952988,-1.699265c4.285416,4.789673 6.81308,11.130371 6.623871,18.022202z" fill="#FFFFFF"/>
   </g>
  </g>
  <g id="svg_59">
   <circle id="svg_60" opacity="0.5" r="23.667969" cy="179.894676" cx="112.130127" fill="#007fff"/>
   <circle id="svg_61" opacity="0.5" r="17.894531" cy="175.007559" cx="112.129566" fill="#aaffff"/>
   <g id="svg_62" opacity="0.5">
    <path id="svg_63" d="m128.876862,166.520859c-0.824753,0.6642 -1.648941,1.327957 -2.473694,1.991272c-3.494095,-2.726563 -8.251419,-4.451706 -13.541351,-4.565445c0.031967,-0.931213 0.063324,-1.862885 0.095306,-2.794098c6.219528,0.134155 11.811127,2.16188 15.919739,5.368271z" fill="#FFFFFF"/>
    <path id="svg_64" d="m135.918335,180.362946c-1.176285,-0.02533 -2.350906,-0.050201 -3.527191,-0.075974c0.144638,-4.192261 -1.770615,-8.049088 -5.017456,-10.963135c0.881378,-0.616211 1.763306,-1.232437 2.644699,-1.849106c3.817062,3.425415 6.068146,7.959778 5.899948,12.888214z" fill="#FFFFFF"/>
    <path id="svg_65" d="m131.546768,164.370972c-0.62851,0.50737 -1.258148,1.013397 -1.887772,1.520325c-4.303741,-3.357437 -10.158813,-5.480667 -16.671051,-5.620621c0.024124,-0.710861 0.048218,-1.421265 0.073456,-2.132553c7.220337,0.15506 13.71405,2.510651 18.485367,6.232849z" fill="#FFFFFF"/>
    <path id="svg_66" d="m139.72139,180.444687c-0.897095,-0.018646 -1.793594,-0.038651 -2.690674,-0.057755c0.177155,-5.160797 -2.181564,-9.909729 -6.178619,-13.496429c0.673355,-0.470505 1.345612,-0.940552 2.019547,-1.411041c4.431549,3.977234 7.04541,9.242416 6.849747,14.965225z" fill="#FFFFFF"/>
   </g>
  </g>
  <g id="svg_75">
   <circle id="svg_76" opacity="0.5" r="15.667969" cy="248.896095" cx="75.642945" fill="#007fff"/>
   <circle id="svg_77" opacity="0.5" r="11.845703" cy="245.66087" cx="75.64259" fill="#aaffff"/>
   <g id="svg_78" opacity="0.5">
    <path id="svg_79" d="m86.231293,240.042755c-0.521454,0.439697 -1.042572,0.879089 -1.564026,1.318207c-2.209198,-1.804962 -5.217072,-2.947006 -8.561707,-3.022293c0.020203,-0.616455 0.040039,-1.2332 0.060272,-1.849655c3.932373,0.088806 7.467712,1.431137 10.06546,3.553741z" fill="#FFFFFF"/>
    <path id="svg_80" d="m90.68335,249.206085c-0.743713,-0.016769 -1.486389,-0.033234 -2.230103,-0.050293c0.091431,-2.775238 -1.119507,-5.328415 -3.172363,-7.257492c0.557251,-0.407928 1.114868,-0.815857 1.67215,-1.224091c2.413391,2.267593 3.83667,5.269302 3.730316,8.531876z" fill="#FFFFFF"/>
    <path id="svg_81" d="m87.919373,238.619553c-0.397369,0.335861 -0.795471,0.670853 -1.193573,1.006439c-2.7211,-2.222595 -6.423035,-3.628159 -10.540497,-3.720795c0.015259,-0.470581 0.030487,-0.940872 0.046448,-1.411743c4.565155,0.102661 8.670898,1.662033 11.687622,4.126099z" fill="#FFFFFF"/>
    <path id="svg_82" d="m93.087891,249.260193c-0.5672,-0.012344 -1.134033,-0.025589 -1.701233,-0.038239c0.11203,-3.416382 -1.379303,-6.560135 -3.906494,-8.934509c0.42572,-0.311462 0.850769,-0.62262 1.276886,-0.934097c2.80188,2.632904 4.454559,6.118408 4.330841,9.906845z" fill="#FFFFFF"/>
   </g>
  </g>
 </g>
</svg>