<?xml version="1.0"?><svg width="640" height="480" xmlns="http://www.w3.org/2000/svg">
 <title>Bubbles</title>
 <g>
  <title>Layer 1</title>
  <ellipse ry="35.5" rx="36" id="svg_11" cy="138.499998" cx="225" opacity="0.82" stroke-width="5" stroke="#ffffff" fill="#aad4ff"/>
  <text xml:space="preserve" text-anchor="middle" font-family="Arial" font-size="24" id="svg_13" y="207" x="162" opacity="0.82" fill-opacity="0.39" stroke-width="0" stroke="#000000" fill="#000000"/>
  <text xml:space="preserve" text-anchor="middle" font-family="Arial" font-size="24" id="svg_14" y="136" x="155" opacity="0.82" fill-opacity="0.39" stroke-width="0" stroke="#000000" fill="#000000"/>
  <line id="svg_17" y2="125" x2="242" y1="117" x1="231" opacity="0.82" stroke-width="5" stroke="#ffffff" fill="none"/>
  <ellipse ry="74.999999" rx="79.000005" id="svg_18" cy="265.000001" cx="386.999995" opacity="0.82" stroke-width="5" stroke="#ffffff" fill="#aad4ff"/>
  <ellipse ry="27" rx="30.999999" id="svg_19" cy="315" cx="117.000002" opacity="0.82" stroke-width="5" stroke="#ffffff" fill="#aad4ff"/>
  <ellipse ry="28" rx="29" id="svg_20" cy="85" cx="404" opacity="0.82" stroke-width="5" stroke="#ffffff" fill="#aad4ff"/>
  <line id="svg_21" y2="308" x2="127" y1="301" x1="119" opacity="0.82" stroke-width="5" stroke="#ffffff" fill="none"/>
  <line id="svg_24" y2="74" x2="420" y1="68" x1="409" opacity="0.82" stroke-width="5" stroke="#ffffff" fill="none"/>
  <ellipse ry="30" rx="30" id="svg_28" cy="94" cx="166" opacity="0.82" stroke-width="5" stroke="#ffffff" fill="#aad4ff"/>
  <ellipse ry="49.500003" rx="49" id="svg_29" cy="357.500002" cx="226" opacity="0.82" stroke-width="5" stroke="#ffffff" fill="#aad4ff"/>
  <ellipse ry="15" rx="14" id="svg_30" cy="110" cx="278" opacity="0.82" stroke-width="5" stroke="#ffffff" fill="#aad4ff"/>
  <ellipse ry="14" rx="16" id="svg_31" cy="140" cx="145" opacity="0.82" stroke-width="5" stroke="#ffffff" fill="#aad4ff"/>
  <ellipse ry="23" rx="24" id="svg_32" cy="129" cx="478" opacity="0.82" stroke-width="5" stroke="#ffffff" fill="#aad4ff"/>
  <line id="svg_33" y2="82" x2="181" y1="75" x1="171" opacity="0.82" stroke-width="5" stroke="#ffffff" fill="none"/>
  <line id="svg_34" y2="108" x2="286" y1="101" x1="277" opacity="0.82" stroke-width="5" stroke="#ffffff" fill="none"/>
  <line id="svg_35" y2="128" x2="490" y1="121" x1="481" opacity="0.82" stroke-width="5" stroke="#ffffff" fill="none"/>
  <line id="svg_36" y2="138" x2="152" y1="133" x1="148" opacity="0.82" stroke-width="5" stroke="#ffffff" fill="none"/>
  <line id="svg_37" y2="333" x2="243" y1="326" x1="231" opacity="0.82" stroke-width="5" stroke="#ffffff" fill="none"/>
  <line id="svg_38" y2="237" x2="402" y1="227" x1="418" opacity="0.82" stroke-width="5" stroke="#ffffff" fill="none" transform="rotate(66.50140380859375 410,232) "/>
 </g>
</svg>