<?xml version="1.0" encoding="iso-8859-1"?>
<!-- Generator: Adobe Illustrator 18.0.0, SVG Export Plug-In . SVG Version: 6.00 Build 0)  -->
<!DOCTYPE svg PUBLIC "-//W3C//DTD SVG 1.1//EN" "http://www.w3.org/Graphics/SVG/1.1/DTD/svg11.dtd">
<svg version="1.1" id="Capa_1" xmlns="http://www.w3.org/2000/svg" xmlns:xlink="http://www.w3.org/1999/xlink" x="0px" y="0px"
	 viewBox="0 0 392.886 392.886" style="enable-background:new 0 0 392.886 392.886;" xml:space="preserve">
<g>
	<circle style="fill:#F7AA3C;" cx="100.485" cy="67.209" r="52.725"/>
	<circle style="fill:#F74B4B;" cx="100.485" cy="67.209" r="36.499"/>
	<circle style="fill:#F7AA3C;" cx="195.614" cy="158.174" r="52.725"/>
	<circle style="fill:#F74B4B;" cx="195.614" cy="158.174" r="36.499"/>
	<circle style="fill:#F7AA3C;" cx="279.517" cy="52.725" r="52.725"/>
	<circle style="fill:#F74B4B;" cx="279.517" cy="52.725" r="36.499"/>
	<circle style="fill:#F7AA3C;" cx="316.598" cy="176.715" r="52.725"/>
	<circle style="fill:#F74B4B;" cx="316.598" cy="176.715" r="36.499"/>
	<circle style="fill:#F7AA3C;" cx="76.288" cy="301.032" r="52.725"/>
	<circle style="fill:#F74B4B;" cx="76.288" cy="301.032" r="36.499"/>
	<circle style="fill:#FFFFFF;" cx="113.521" cy="43.747" r="13.036"/>
	<circle style="fill:#FFFFFF;" cx="216.943" cy="135.867" r="13.036"/>
	<circle style="fill:#FFFFFF;" cx="302.693" cy="29.549" r="13.036"/>
	<circle style="fill:#FFFFFF;" cx="337.167" cy="155.856" r="13.036"/>
	<circle style="fill:#F7AA3C;" cx="282.65" cy="265.007" r="52.725"/>
	<circle style="fill:#F74B4B;" cx="282.65" cy="265.007" r="36.499"/>
	<circle style="fill:#FFFFFF;" cx="303.218" cy="244.148" r="13.036"/>
	<circle style="fill:#FFFFFF;" cx="97.146" cy="277.856" r="13.036"/>
	<circle style="fill:#F7AA3C;" cx="168.674" cy="340.161" r="52.725"/>
	<circle style="fill:#F74B4B;" cx="168.674" cy="340.161" r="36.499"/>
	<circle style="fill:#FFFFFF;" cx="189.532" cy="316.986" r="13.036"/>
</g>
<g>
</g>
<g>
</g>
<g>
</g>
<g>
</g>
<g>
</g>
<g>
</g>
<g>
</g>
<g>
</g>
<g>
</g>
<g>
</g>
<g>
</g>
<g>
</g>
<g>
</g>
<g>
</g>
<g>
</g>
</svg>
